<svg width="20" height="14" viewBox="0 0 20 14" fill="none" xmlns="http://www.w3.org/2000/svg">
<path fill-rule="evenodd" clip-rule="evenodd" d="M9.99601 3.11621C8.06424 3.11621 6.49823 4.68222 6.49823 6.61399C6.49823 8.54577 8.06424 10.1118 9.99601 10.1118C11.9278 10.1118 13.4938 8.54577 13.4938 6.61399C13.4938 4.68222 11.9278 3.11621 9.99601 3.11621ZM8.49839 6.61399C8.49839 5.78688 9.1689 5.11637 9.99601 5.11637C10.8231 5.11637 11.4936 5.78688 11.4936 6.61399C11.4936 7.44111 10.8231 8.11162 9.99601 8.11162C9.1689 8.11162 8.49839 7.44111 8.49839 6.61399Z" fill="#8C8B8B"/>
<path fill-rule="evenodd" clip-rule="evenodd" d="M4.01236 2.18933C5.58535 1.02694 6.37184 0.445741 8.48069 0.0845787C9.13916 -0.0281929 10.8607 -0.0281929 11.5191 0.0845787C13.628 0.445741 14.4145 1.02694 15.9875 2.18933C16.8927 2.85824 17.7209 3.58404 18.4198 4.25062C19.4731 5.25534 19.9998 5.7577 19.9998 6.61396C19.9998 7.47023 19.4731 7.97258 18.4198 8.9773C17.7209 9.64389 16.8927 10.3697 15.9875 11.0386C14.4145 12.201 13.628 12.7822 11.5191 13.1433C10.8607 13.2561 9.13916 13.2561 8.48069 13.1433C6.37184 12.7822 5.58535 12.201 4.01236 11.0386C3.10717 10.3697 2.27896 9.64389 1.58008 8.9773C0.526694 7.97259 0 7.47023 0 6.61396C0 5.7577 0.526695 5.25534 1.58008 4.25062C2.27896 3.58403 3.10717 2.85824 4.01236 2.18933ZM14.7989 3.7978C15.6204 4.40487 16.3841 5.07288 17.0394 5.69787C17.3099 5.95589 17.5132 6.15016 17.6818 6.32241C17.8089 6.45219 17.8922 6.54549 17.9479 6.61396C17.8922 6.68243 17.8089 6.77573 17.6818 6.90551C17.5132 7.07776 17.3099 7.27203 17.0394 7.53005C16.3841 8.15504 15.6204 8.82305 14.7989 9.43012C13.9802 10.0351 13.5268 10.3638 13.044 10.6106C12.6082 10.8334 12.0875 11.0169 11.1815 11.172C11.0315 11.1977 10.5817 11.2279 9.99992 11.2279C9.41809 11.2279 8.96829 11.1977 8.81829 11.172C7.91236 11.0169 7.39167 10.8334 6.95584 10.6106C6.47308 10.3638 6.01965 10.0351 5.20098 9.43012C4.37948 8.82305 3.61573 8.15504 2.96047 7.53005C2.68995 7.27203 2.48661 7.07776 2.31799 6.90551C2.19095 6.77573 2.1076 6.68243 2.05197 6.61396C2.1076 6.54549 2.19095 6.45219 2.318 6.32241C2.48661 6.15016 2.68995 5.95589 2.96047 5.69787C3.61573 5.07288 4.37948 4.40487 5.20098 3.7978C6.01965 3.19283 6.47308 2.8641 6.95584 2.61734C7.39167 2.39457 7.91236 2.21103 8.81829 2.05588C8.96829 2.03019 9.41809 2 9.99992 2C10.5817 2 11.0315 2.03019 11.1815 2.05588C12.0875 2.21103 12.6082 2.39457 13.044 2.61734C13.5268 2.8641 13.9802 3.19283 14.7989 3.7978Z" fill="#8C8B8B"/>
</svg>
